<svg width="132" height="89" viewBox="0 0 132 89" fill="none" xmlns="http://www.w3.org/2000/svg">
<path d="M85.4479 72.5525C87.3456 77.2291 91.4171 79.9969 94.5419 78.7346C97.6666 77.4724 98.6614 72.6581 96.7637 67.9815C94.866 63.305 90.7945 60.5372 87.6697 61.7995C84.545 63.0617 83.5502 67.876 85.4479 72.5525Z" fill="white"/>
<path d="M56.7041 6.4907C56.43 1.4209 50.9174 -1.60063 46.4816 0.887568L34.2036 7.77485C32.6429 8.6503 30.8012 8.88298 29.0711 8.4233L15.4599 4.80691C10.5425 3.5004 5.95882 7.79753 6.95991 12.7755L9.73091 26.5544C10.0831 28.3058 9.73583 30.1253 8.76301 31.6249L1.10968 43.423C-1.65527 47.6853 1.02442 53.3626 6.07888 53.951L20.0695 55.5795C21.8479 55.7865 23.4749 56.6783 24.6038 58.0648L33.485 68.9728C36.6936 72.9136 42.9334 72.1252 45.0561 67.5109L50.9318 54.7385C51.6787 53.115 53.0315 51.8467 54.7021 51.2039L67.8443 46.1474C72.5922 44.3206 73.7689 38.1561 70.0264 34.7159L59.6671 25.1936C58.3503 23.9832 57.5594 22.3076 57.463 20.5238L56.7041 6.4907Z" fill="#90B44B"/>
<path d="M89.2754 54.0003C89.2754 38.8645 76.9493 26.5945 61.7443 26.5945H56.1393C54.7795 26.5945 53.4169 26.6765 52.0842 26.9463C42.2385 28.9397 39.2157 33.872 34.5955 40.8671C31.7443 45.184 21.2124 49.6217 23.1242 62.9439C25.0361 76.2662 38.8917 83.6899 54.0968 83.6899H61.7443C76.9493 83.6899 89.2754 71.4199 89.2754 56.2841V54.0003Z" fill="white"/>
<path d="M78.999 76.223C78.9598 76.2638 78.896 76.3366 78.8075 76.4415C78.7148 76.5465 78.6234 76.663 78.5333 76.791C78.439 76.9192 78.3709 77.0394 78.3289 77.1517C78.2828 77.2641 78.2877 77.3471 78.3436 77.4007C78.3715 77.4274 78.4389 77.4755 78.5458 77.5448C78.6526 77.6141 78.7743 77.6894 78.9109 77.7707C79.0455 77.8541 79.1714 77.9315 79.2888 78.0027C79.4041 78.0718 79.4862 78.1195 79.5353 78.1458C79.5779 78.1702 79.6184 78.1883 79.6566 78.2001C79.6926 78.2099 79.7312 78.1933 79.7725 78.1504C79.787 78.1354 79.7982 78.1194 79.8063 78.1024C79.8144 78.0854 79.8235 78.0694 79.8338 78.0545C79.9009 77.9375 79.9788 77.8328 80.0676 77.7405C80.1089 77.6976 80.1617 77.6555 80.2262 77.6142C80.2886 77.5751 80.35 77.5843 80.4102 77.642C80.4747 77.7037 80.5207 77.789 80.5483 77.8978C80.5738 78.0088 80.5877 78.1231 80.5902 78.2408C80.5926 78.3586 80.5905 78.4596 80.5838 78.5438C80.5556 78.8094 80.5412 79.0326 80.5408 79.2135C80.5382 79.3966 80.5755 79.5682 80.6526 79.7286C80.7255 79.889 80.8652 80.0681 81.0716 80.2657L81.1458 80.3368C81.4146 80.5941 81.6816 80.759 81.9465 80.8313C82.2073 80.9038 82.4645 80.9048 82.7181 80.8344C82.9717 80.7639 83.218 80.6432 83.4569 80.4721C83.6957 80.301 83.9256 80.1007 84.1464 79.8711C84.2722 79.7402 84.4144 79.5795 84.5727 79.3891C84.7312 79.2029 84.8435 79.026 84.9096 78.8585C84.9256 78.8203 84.9344 78.7854 84.9359 78.7538C84.9352 78.7244 84.9177 78.6932 84.8833 78.6603C84.8726 78.65 84.8565 78.6387 84.8352 78.6265C84.7006 78.5389 84.567 78.4522 84.4346 78.3666C84.3021 78.281 84.1707 78.1944 84.0403 78.1066C83.9782 78.0637 83.9183 78.0187 83.8604 77.9715C83.7983 77.9244 83.7342 77.8837 83.6681 77.8493C83.6405 77.8351 83.6043 77.8212 83.5598 77.8074C83.5132 77.7957 83.4764 77.8038 83.4496 77.8317C83.4331 77.8489 83.4198 77.867 83.4096 77.8862C83.3953 77.9054 83.383 77.9246 83.3729 77.9437C83.3036 78.0587 83.231 78.1664 83.1551 78.2668C83.0792 78.3672 82.9948 78.4657 82.9019 78.5623C82.8544 78.6116 82.8026 78.6527 82.7464 78.6854C82.6901 78.7181 82.6297 78.7036 82.5652 78.6418C82.5007 78.58 82.456 78.5063 82.431 78.4206C82.4084 78.3453 82.393 78.2668 82.385 78.1849C82.3728 78.1031 82.3658 78.0223 82.3642 77.9424C82.3599 77.8394 82.3631 77.7374 82.3737 77.6362C82.3842 77.535 82.3937 77.4328 82.4021 77.3296C82.4355 77.0113 82.404 76.7586 82.3073 76.5713C82.2086 76.3819 82.0472 76.176 81.8234 75.9534L81.7944 75.9256C81.4675 75.6127 81.1444 75.4332 80.8251 75.3872C80.5037 75.3392 80.1897 75.393 79.8831 75.5486C79.5764 75.7043 79.2817 75.9291 78.999 76.223Z" fill="#90B44B"/>
<path d="M72.4621 81.0672C72.3666 81.1385 72.3564 81.2241 72.4314 81.3241C72.5207 81.4432 72.6156 81.5598 72.7163 81.6741C72.8169 81.7884 72.9142 81.9033 73.0083 82.0188C73.2053 82.2617 73.4012 82.5054 73.5958 82.7501C73.7881 82.9965 73.978 83.2447 74.1655 83.4947C74.3672 83.7638 74.5654 84.0355 74.7601 84.3099C74.9505 84.5837 75.1418 84.8587 75.3341 85.1348C75.4275 85.2694 75.5195 85.4069 75.6099 85.5473C75.6962 85.6872 75.7893 85.8238 75.8893 85.9571C75.9554 86.0452 76.035 86.0545 76.128 85.985L77.4847 84.9722C77.5372 84.933 77.5652 84.8935 77.5689 84.8536C77.5701 84.8156 77.5552 84.7709 77.5243 84.7197C77.466 84.6221 77.4008 84.5278 77.3288 84.4367C77.255 84.3433 77.1853 84.2504 77.1199 84.1582C76.9866 83.9754 76.8553 83.793 76.7262 83.6109C76.5946 83.4305 76.461 83.2499 76.3253 83.0689C76.3182 83.0594 76.3104 83.0466 76.3021 83.0305C76.2896 83.0139 76.2917 82.9993 76.3084 82.9868L77.8369 81.8457C77.8488 81.8368 77.8622 81.8398 77.8771 81.8547C77.8902 81.8672 77.9003 81.8782 77.9075 81.8877C78.0432 82.0687 78.1792 82.2475 78.3155 82.4243C78.4518 82.6011 78.5902 82.7782 78.7307 82.9556C78.8027 83.0467 78.8735 83.1386 78.9432 83.2315C79.0104 83.3261 79.0828 83.4151 79.1602 83.4985C79.2006 83.5425 79.2394 83.5693 79.2763 83.5789C79.3109 83.5902 79.3556 83.5754 79.4105 83.5344L80.7636 82.5242C80.859 82.453 80.8692 82.3674 80.7942 82.2674C80.6978 82.1388 80.5954 82.0147 80.4871 81.895C80.3769 81.773 80.2713 81.6494 80.1701 81.5244C79.9563 81.2643 79.7459 81.0036 79.5388 80.7422C79.3298 80.4785 79.1245 80.2122 78.9227 79.9431C78.7352 79.6931 78.5513 79.4404 78.3709 79.1851C78.1882 78.9315 78.0079 78.6762 77.8299 78.4191C77.7454 78.2965 77.6624 78.1709 77.5809 78.0423C77.4994 77.9138 77.4139 77.79 77.3247 77.6709C77.2497 77.5709 77.1644 77.5566 77.069 77.6278L75.7267 78.63C75.6312 78.7012 75.6189 78.7866 75.6897 78.886C75.7564 78.9848 75.8263 79.083 75.8995 79.1806C75.9709 79.2758 76.0412 79.372 76.1102 79.469L76.8843 80.5234C76.8914 80.533 76.9012 80.546 76.9137 80.5627C76.9221 80.5788 76.9179 80.593 76.9012 80.6055L75.3763 81.744C75.362 81.7547 75.3483 81.7537 75.3352 81.7412C75.3221 81.7287 75.3119 81.7177 75.3048 81.7082C75.1691 81.5273 75.0343 81.3475 74.9003 81.1689C74.764 80.9921 74.6268 80.8142 74.4887 80.635C74.4185 80.5463 74.3497 80.4546 74.2825 80.36C74.2128 80.2671 74.1393 80.179 74.0619 80.0957C74.0214 80.0516 73.9827 80.0248 73.9458 80.0153C73.9088 80.0057 73.8641 80.0205 73.8116 80.0597L72.4621 81.0672Z" fill="#90B44B"/>
<path d="M70.7228 81.1511C70.6784 81.0343 70.6005 80.997 70.489 81.0391L66.5798 82.516C66.471 82.557 66.4362 82.629 66.4753 82.7319C66.5344 82.8876 66.5982 83.0432 66.6667 83.1986C66.7314 83.3522 66.7961 83.5058 66.8607 83.6594C66.8994 83.7529 66.9372 83.8484 66.9742 83.9457C67.0083 84.0441 67.0475 84.139 67.0918 84.2304C67.1451 84.3374 67.2234 84.3714 67.3265 84.3325L69.3919 83.5522C69.4282 83.5385 69.4593 83.5617 69.4853 83.6219C69.5085 83.683 69.5244 83.7248 69.5328 83.747C69.5391 83.7637 69.5485 83.7967 69.5609 83.8461C69.5694 83.8938 69.5611 83.9223 69.536 83.9318L67.7841 84.5936C67.6727 84.6357 67.6385 84.7138 67.6818 84.8278L68.0491 85.7956C68.0924 85.9097 68.1698 85.9456 68.2812 85.9035L70.0164 85.248C70.0666 85.229 70.1011 85.2446 70.1201 85.2946C70.1391 85.3447 70.156 85.3892 70.1708 85.4281C70.1771 85.4448 70.186 85.4765 70.1973 85.5231C70.2075 85.5669 70.1987 85.5941 70.1708 85.6046L68.0066 86.427C67.8951 86.4691 67.8591 86.5463 67.8985 86.6586C67.9869 86.9082 68.0707 87.1627 68.1501 87.4221C68.2283 87.6787 68.3144 87.9308 68.4083 88.1783C68.4527 88.2951 68.5306 88.3324 68.6421 88.2903L72.6768 86.7661C72.7883 86.7239 72.8219 86.6445 72.7776 86.5277C72.7195 86.3747 72.6578 86.2247 72.5924 86.0777C72.5233 85.929 72.4568 85.7792 72.3932 85.6283C72.2607 85.3127 72.1315 84.9974 72.0056 84.6825C71.8797 84.3676 71.7561 84.0502 71.6347 83.7304C71.5249 83.4412 71.4194 83.1504 71.3179 82.858C71.2138 82.5666 71.1115 82.2762 71.0112 81.9866C70.9612 81.8465 70.9145 81.7067 70.8711 81.5673C70.8239 81.4261 70.7745 81.2874 70.7228 81.1511Z" fill="#90B44B"/>
<path d="M65.1671 82.482C65.1493 82.3584 65.0815 82.305 64.9634 82.3219L60.8255 82.9129C60.7104 82.9294 60.6607 82.992 60.6763 83.101C60.7 83.2658 60.7283 83.4315 60.7612 83.598C60.7908 83.762 60.8203 83.926 60.8499 84.09C60.8672 84.1897 60.8832 84.291 60.898 84.3941C60.9098 84.4975 60.9274 84.5987 60.9506 84.6975C60.9793 84.8135 61.0482 84.8638 61.1574 84.8482L63.3436 84.5359C63.382 84.5304 63.4073 84.5599 63.4195 84.6242C63.4288 84.689 63.4351 84.7331 63.4385 84.7567C63.4411 84.7743 63.443 84.8086 63.4442 84.8595C63.4422 84.9079 63.4278 84.9339 63.4013 84.9377L61.5469 85.2026C61.4289 85.2194 61.3786 85.2882 61.3959 85.4089L61.5429 86.4333C61.5602 86.554 61.6279 86.6059 61.7459 86.5891L63.5825 86.3267C63.6356 86.3192 63.666 86.3419 63.6736 86.3948C63.6812 86.4478 63.6879 86.4949 63.6939 86.5361C63.6964 86.5538 63.6981 86.5866 63.6989 86.6345C63.6994 86.6795 63.6848 86.7042 63.6553 86.7084L61.3635 87.0402C61.2455 87.0571 61.1934 87.1246 61.2074 87.2428C61.2391 87.5056 61.2653 87.7722 61.286 88.0426C61.3063 88.3101 61.3353 88.5748 61.3729 88.8368C61.3906 88.9604 61.4585 89.0138 61.5765 88.997L65.8472 88.387C65.9653 88.3701 66.0154 88.2999 65.9977 88.1762C65.9744 88.0143 65.947 87.8545 65.9153 87.6968C65.8803 87.5366 65.8482 87.376 65.8191 87.2149C65.7587 86.8781 65.7015 86.5423 65.6474 86.2075C65.5934 85.8728 65.5421 85.5362 65.4935 85.1976C65.4496 84.8915 65.4101 84.5847 65.375 84.2773C65.337 83.9703 65.3006 83.6646 65.266 83.3601C65.2478 83.2125 65.2328 83.066 65.2209 82.9205C65.2057 82.7724 65.1878 82.6263 65.1671 82.482Z" fill="#90B44B"/>
<path d="M58.9487 82.6967C58.9487 82.5718 58.8891 82.5093 58.7699 82.5093H56.4227C56.0353 82.5093 55.6657 82.5539 55.314 82.6431C54.9593 82.7323 54.6449 82.8736 54.3707 83.0669C54.0965 83.2572 53.8804 83.5055 53.7224 83.8118C53.5615 84.1151 53.481 84.4839 53.481 84.918C53.481 85.6852 53.706 86.2815 54.1561 86.7067C54.6031 87.132 55.2067 87.3446 55.9667 87.3446H56.8519C56.8847 87.3446 56.9011 87.3639 56.9011 87.4026C56.9011 87.4591 56.9026 87.517 56.9056 87.5765C56.9086 87.633 56.91 87.691 56.91 87.7505C56.91 87.8605 56.9086 87.978 56.9056 88.1029C56.8996 88.2248 56.9041 88.3423 56.919 88.4553C56.9279 88.5177 56.9428 88.5638 56.9637 88.5935C56.9846 88.6233 57.0308 88.6381 57.1023 88.6381H58.7878C58.907 88.6381 58.9666 88.5757 58.9666 88.4508C58.9666 88.2902 58.9606 88.1281 58.9487 87.9646C58.9368 87.801 58.9278 87.639 58.9219 87.4784C58.907 87.1424 58.8965 86.8063 58.8906 86.4703C58.8816 86.1313 58.8772 85.7923 58.8772 85.4533C58.8772 85.1529 58.8802 84.8526 58.8861 84.5523C58.8891 84.2519 58.8965 83.9516 58.9085 83.6512C58.9144 83.4936 58.9234 83.3345 58.9353 83.1739C58.9442 83.0134 58.9487 82.8543 58.9487 82.6967ZM56.2081 85.8057C55.9101 85.8057 55.7119 85.7194 55.6135 85.547C55.5152 85.3715 55.466 85.1529 55.466 84.8913C55.466 84.4095 55.7134 84.1686 56.2081 84.1686H56.9011C56.9011 84.4393 56.8996 84.7113 56.8966 84.9849C56.8937 85.2585 56.8951 85.5321 56.9011 85.8057H56.2081Z" fill="#90B44B"/>
<path d="M52.206 82.6592C52.2101 82.5344 52.1526 82.4701 52.0334 82.4662L47.7125 82.3251C47.5934 82.3212 47.532 82.3742 47.5284 82.4842C47.5196 82.7517 47.5182 83.0209 47.5243 83.2918C47.5273 83.5627 47.5289 83.832 47.5291 84.0998C47.5281 84.2217 47.5856 84.2846 47.7018 84.2884L50.0566 84.3653C50.0894 84.3664 50.1052 84.3833 50.1042 84.416L50.0916 84.7994C50.09 84.8469 50.0654 84.8699 50.0178 84.8684L48.074 84.8049C47.9549 84.801 47.8933 84.86 47.8893 84.9818C47.8815 85.2196 47.8722 85.4588 47.8613 85.6995C47.8504 85.9401 47.8411 86.1793 47.8333 86.4171C47.8294 86.536 47.887 86.5974 48.0062 86.6012L49.9812 86.6657C50.0139 86.6668 50.0298 86.6837 50.0287 86.7164C50.0198 86.9868 50.0109 87.2588 50.0019 87.5322C49.9931 87.8027 49.9871 88.0747 49.9841 88.3484C49.9861 88.4704 50.0451 88.5333 50.1613 88.5371L51.8459 88.5922C51.965 88.596 52.0267 88.5356 52.0308 88.4107C52.0361 88.2473 52.037 88.0851 52.0333 87.9244C52.0268 87.7605 52.0232 87.5968 52.0226 87.4331C52.0219 87.0909 52.0241 86.7503 52.0293 86.4113C52.0344 86.0723 52.0426 85.7319 52.0538 85.3901C52.064 85.081 52.0786 84.772 52.0976 84.4632C52.1137 84.1543 52.1313 83.8469 52.1503 83.5411C52.1581 83.3926 52.1689 83.2457 52.1826 83.1003C52.1934 82.9519 52.2012 82.8049 52.206 82.6592Z" fill="#90B44B"/>
<path d="M43.8563 81.3955C43.4775 81.3299 43.1144 81.3047 42.7669 81.3199C42.4169 81.3318 42.0979 81.4002 41.81 81.5254C41.5195 81.6471 41.2759 81.8388 41.0791 82.1005C40.8794 82.3617 40.742 82.7076 40.6671 83.1383L40.6609 83.1734C40.6027 83.5255 40.6077 83.8705 40.6759 84.2083C40.7447 84.5432 40.9036 84.8468 41.1526 85.1194C41.2008 85.173 41.2514 85.221 41.3045 85.2634C41.3576 85.3058 41.4102 85.3512 41.4623 85.3994C41.4677 85.4034 41.4752 85.4122 41.485 85.426L41.4871 85.4399C41.4845 85.4546 41.4372 85.5007 41.345 85.5783C41.2499 85.6554 41.1324 85.7482 40.9925 85.8568C40.8502 85.9619 40.7059 86.0697 40.5596 86.1802C40.4138 86.2877 40.2853 86.3831 40.174 86.4665C40.0602 86.5464 39.9859 86.5999 39.9509 86.627C39.9228 86.6493 39.8913 86.674 39.8563 86.7012C39.8213 86.7283 39.8003 86.7624 39.7931 86.8034C39.784 86.8562 39.8109 86.8925 39.874 86.9125C39.9371 86.9325 39.9862 86.9455 40.0215 86.9516L41.8759 87.2729C41.9287 87.2821 41.9815 87.2656 42.0342 87.2234C42.0692 87.1963 42.1326 87.1363 42.2244 87.0436C42.3137 86.9474 42.4174 86.8386 42.5353 86.7172C42.6503 86.5952 42.7633 86.476 42.8744 86.3594C42.9854 86.2428 43.0806 86.1476 43.16 86.0739C43.2399 85.9972 43.2872 85.9601 43.3019 85.9626C43.3459 85.9703 43.3678 85.9922 43.3676 86.0283C43.3643 86.0821 43.3575 86.1383 43.3473 86.1969C43.3377 86.2525 43.3282 86.3067 43.319 86.3595C43.2915 86.5177 43.2622 86.6771 43.2313 86.8377C43.1978 86.9949 43.175 87.1525 43.1626 87.3103C43.1578 87.3728 43.1646 87.4208 43.1829 87.4541C43.2013 87.4875 43.2443 87.5101 43.3118 87.5218L44.9725 87.8095C45.0899 87.8298 45.1594 87.7785 45.1808 87.6554C45.2083 87.4972 45.2302 87.3365 45.2465 87.1734C45.2628 87.0102 45.2818 86.849 45.3035 86.6897C45.3464 86.3561 45.3938 86.0233 45.4455 85.6912C45.4949 85.3556 45.5486 85.0209 45.6067 84.6869C45.6598 84.3822 45.716 84.0765 45.7754 83.7699C45.8348 83.4633 45.8969 83.1586 45.9617 82.856C45.9902 82.71 46.023 82.5647 46.0603 82.4203C46.0951 82.2724 46.125 82.1267 46.15 81.9831C46.1714 81.86 46.1234 81.7883 46.0059 81.768L43.8563 81.3955ZM43.1261 84.3657C42.9646 84.3377 42.8506 84.2802 42.784 84.1933C42.718 84.1033 42.6822 83.996 42.6767 83.8713C42.6712 83.7466 42.6799 83.6183 42.7028 83.4865C42.7355 83.299 42.8062 83.1619 42.9151 83.0751C43.0211 82.9878 43.1709 82.961 43.3648 82.9945L43.8801 83.0838C43.8403 83.3124 43.8006 83.5409 43.7608 83.7694C43.7181 83.9974 43.6768 84.2257 43.637 84.4542L43.1261 84.3657Z" fill="#90B44B"/>
<path d="M33.9475 77.6192C34.0183 77.5198 34.004 77.4348 33.9044 77.3641L32.5421 76.3969C32.4425 76.3262 32.3573 76.3405 32.2864 76.4398C32.0359 76.7911 31.7881 77.1463 31.5431 77.5052C31.2998 77.8617 31.052 78.2168 30.7997 78.5705C30.4921 79.0018 30.1805 79.4284 29.8649 79.8503C29.5493 80.2723 29.2377 80.6989 28.9301 81.1302C28.8593 81.2295 28.8736 81.3145 28.9732 81.3852L30.3501 82.3628C30.4472 82.4318 30.5312 82.4166 30.6021 82.3173C30.9097 81.886 31.2128 81.4533 31.5113 81.0193C31.8075 80.5836 32.1094 80.1501 32.417 79.7188C32.6693 79.3651 32.9244 79.0151 33.1822 78.669C33.4418 78.3204 33.6969 77.9705 33.9475 77.6192Z" fill="#90B44B"/>
<path d="M38.2206 79.993C38.1089 79.9435 38.0283 79.9745 37.9786 80.0859C37.7426 80.6158 37.5038 81.1445 37.2624 81.672C37.0221 82.1967 36.7839 82.7241 36.5479 83.254C36.4474 83.4795 36.3206 83.6104 36.1675 83.6466C36.0128 83.6789 35.8293 83.648 35.6168 83.5538C35.4235 83.468 35.2806 83.3494 35.1883 83.1978C35.096 83.0462 35.0971 82.8645 35.1915 82.6525C35.4275 82.1226 35.6603 81.5929 35.8896 81.0633C36.1202 80.531 36.3536 79.9999 36.5896 79.47C36.6392 79.3585 36.6082 79.2781 36.4965 79.2286L34.9849 78.5583C34.876 78.51 34.7961 78.5429 34.7453 78.657C34.6823 78.7983 34.6242 78.9434 34.5709 79.0923C34.5189 79.2384 34.4641 79.3833 34.4066 79.527C34.2916 79.8145 34.1719 80.1015 34.0476 80.388C33.9244 80.6718 33.7999 80.955 33.674 81.2377L33.3744 81.9102C33.2255 82.2445 33.1574 82.5804 33.1701 82.9179C33.1813 83.2516 33.2593 83.5709 33.4039 83.8758C33.5459 84.1796 33.7404 84.453 33.9877 84.696C34.2334 84.9351 34.5156 85.1254 34.8343 85.2667C35.3245 85.4841 35.7927 85.5973 36.2388 85.6063C36.6848 85.6154 37.0873 85.5026 37.4462 85.268C37.8063 85.0307 38.1026 84.6512 38.335 84.1294C38.5117 83.7327 38.6891 83.3346 38.867 82.9351C39.045 82.5356 39.2305 82.1412 39.4235 81.7517C39.4919 81.6128 39.563 81.4751 39.6369 81.3386C39.7119 81.1994 39.7809 81.0592 39.8439 80.9179C39.8947 80.8037 39.8657 80.7225 39.7567 80.6742L38.2206 79.993Z" fill="#90B44B"/>
<path d="M31.1133 75.2419C31.1941 75.1464 31.1889 75.0604 31.0979 74.9836L27.9353 72.3182C27.8442 72.2414 27.7583 72.2507 27.6775 72.3461C27.5833 72.4575 27.4915 72.5728 27.4021 72.6921C27.3124 72.8073 27.2218 72.9236 27.1302 73.041C27.0555 73.1338 26.9809 73.2266 26.9062 73.3193C26.8312 73.4079 26.7575 73.4996 26.6851 73.5943C26.6085 73.6894 26.6158 73.7753 26.7069 73.852L27.4855 74.5083C27.5151 74.5333 27.5175 74.5605 27.4925 74.59L27.0424 75.1216C26.6943 75.5328 26.3416 75.9401 25.9844 76.3436C25.6271 76.7471 25.2745 77.1545 24.9263 77.5656C24.8475 77.6588 24.8547 77.7447 24.9481 77.8234L26.2391 78.9114C26.3278 78.9862 26.4117 78.9771 26.4905 78.884C26.8079 78.5091 27.1218 78.1314 27.4323 77.7508C27.7429 77.3702 28.0568 76.9925 28.3741 76.6177L29.0088 75.8681C29.0338 75.8385 29.06 75.8353 29.0873 75.8583L29.7875 76.4484C29.8785 76.5251 29.9647 76.5179 30.0458 76.4267C30.1273 76.3396 30.2055 76.2518 30.2805 76.1632C30.3575 76.0724 30.4367 75.9834 30.5182 75.8964C30.6166 75.7847 30.7164 75.6761 30.8174 75.5706C30.9204 75.4627 31.0191 75.3532 31.1133 75.2419Z" fill="#90B44B"/>
<path d="M42.7941 66.7991C43.2765 66.7991 44.2899 66.437 44.5003 66.2685C44.7062 66.0926 46.4078 65.5072 44.8818 64.0736C43.3558 62.64 43.0482 64.3242 42.2112 64.1347C41.3742 63.9451 41.042 64.0736 40.0429 62.8428C39.9222 62.0815 39.5467 60.8361 39.9222 59.7977C40.1517 59.6024 41.9683 59.1452 42.0899 58.9803C42.207 58.808 42.2871 58.6331 42.3301 58.4555C42.3904 58.2069 42.3843 57.9861 42.3117 57.7932C42.2332 57.5988 42.115 57.4387 41.9571 57.3129C41.7947 57.1797 41.6156 57.0895 41.4198 57.0423C41.2715 57.0065 41.1344 56.9891 41.0086 56.99C40.8768 56.9896 40.7356 57.015 40.585 57.0664C40.4285 57.1164 40.2478 57.2012 40.0429 57.321C39.8335 57.4334 39.5741 57.5838 39.2647 57.7723C39.0068 57.3592 38.7912 57.044 38.6178 56.8268C38.4458 56.6036 38.2869 56.443 38.1411 56.3452C37.9893 56.2459 37.8185 56.1734 37.6286 56.1276C37.4269 56.0789 37.2263 56.0775 37.0267 56.1233C36.8213 56.1678 36.6421 56.2592 36.4892 56.3978C36.3304 56.5349 36.2216 56.7248 36.1627 56.9675C36.1197 57.1451 36.1168 57.3386 36.1539 57.5481C36.1925 57.7516 36.278 57.9947 36.4105 58.2773C36.537 58.5585 36.7114 58.9013 36.9337 59.3058C36.9337 60.9396 37.1273 60.9413 36.8702 62.2315C36.613 63.5217 34.3343 63.7924 33.9528 63.6211C33.5713 63.4499 32.8117 62.0888 32.1918 62.3903C31.5719 62.6918 31.6638 63.4293 31.6638 63.8305C31.6638 64.2317 32.0453 64.8241 32.4268 65.2047C32.8083 65.5854 33.5713 66.1862 34.324 66.1862C35.0767 66.1862 35.5191 66.266 36.6027 65.816C36.889 65.6971 38.0529 64.8327 38.3463 64.6842C38.5379 64.956 38.959 65.6516 39.1593 65.8878C39.3535 66.1227 40.3038 66.6491 41.042 66.7991C41.7803 66.9491 42.3117 66.7991 42.7941 66.7991Z" fill="#90B44B"/>
<path d="M89.2094 61.1809C88.076 62.1675 88.6217 66.439 88.8283 66.6904C89.8108 67.8863 90.7872 69.0872 91.7575 70.2931C92.7227 71.4929 93.9433 72.1196 94.9258 73.3155C95.3441 73.8245 95.9198 74.8719 96.0918 75.2056C96.2639 75.5393 96.0913 76.819 95.7319 77.113C95.3725 77.4069 94.6004 78.2677 93.8375 78.2763C93.0745 78.2849 91.987 78.3028 90.3999 77.9344C88.8127 77.5661 88.4795 76.8141 87.3704 74.9289C85.5873 71.8982 86.676 70.4502 85.6935 69.2543C85.4869 69.0029 85.2576 68.9802 85.0056 69.1864L83.4817 70.4049C83.4817 70.4049 82.704 72.1738 82.7446 72.6971C82.7852 73.2205 82.9404 74.2029 83.2147 74.5117C83.7633 75.1294 84.3052 75.7577 84.8405 76.3966C85.3706 77.0293 85.8978 77.6646 86.4218 78.3024L87.6689 79.8203C88.2887 80.5746 89.0092 81.1388 89.8305 81.513C90.6406 81.886 91.4964 82.0833 92.3979 82.1048C93.2932 82.1312 94.1791 81.9962 95.0557 81.6997C95.9211 81.402 96.7134 80.9591 97.4325 80.3709C98.5389 79.466 99.3701 78.4888 99.9261 77.4393C100.482 76.3899 100.695 75.298 100.565 74.1639C100.429 73.0235 99.878 71.8647 98.9106 70.6872C98.1749 69.7918 97.4367 68.8934 96.696 67.9919C95.9553 67.0904 95.2356 66.1769 94.5368 65.2513C94.2871 64.9224 94.0435 64.5884 93.8061 64.2494C93.5636 63.9043 93.3113 63.5722 93.0493 63.2533C92.8377 62.9958 92.1759 62.5239 92.1759 62.5239C92.1759 62.5239 90.3428 60.1944 89.2094 61.1809Z" fill="#90B44B"/>
<path d="M48.1371 49.861C47.7513 50.7252 48.3748 51.8417 49.5296 52.3549C50.6845 52.868 51.9333 52.5835 52.3191 51.7193C52.7048 50.8552 52.0814 49.7386 50.9265 49.2255C49.7717 48.7123 48.5228 48.9969 48.1371 49.861Z" fill="#90B44B"/>
<path d="M32.6654 50.5949C33.2662 51.107 34.3079 50.8743 34.9922 50.0752C35.6766 49.276 35.7444 48.2131 35.1437 47.701C34.543 47.1889 33.5012 47.4216 32.8169 48.2207C32.1325 49.0198 32.0647 50.0828 32.6654 50.5949Z" fill="#90B44B"/>
<path fill-rule="evenodd" clip-rule="evenodd" d="M79.1741 58.4408C82.9337 50.0017 80.405 41.2129 74.2498 38.4832L75.1795 36.3963C82.9221 39.8299 85.323 50.2614 81.2658 59.3685C77.4126 68.0178 68.7675 73.1533 61.2754 70.7063C60.6511 71.3896 59.7518 71.8184 58.7521 71.8184C56.8668 71.8184 55.3385 70.2935 55.3385 68.4125C55.3385 66.5316 56.8668 65.0067 58.7521 65.0067C60.6373 65.0067 62.1657 66.5316 62.1657 68.4125C62.1657 68.4712 62.1642 68.5295 62.1612 68.5874C68.1583 70.3955 75.6413 66.3709 79.1741 58.4408Z" fill="#666666"/>
<path d="M116.462 6.4907C116.187 1.4209 110.675 -1.60063 106.239 0.887568L93.961 7.77485C92.4003 8.6503 90.5587 8.88298 88.8285 8.4233L75.2173 4.80691C70.3 3.5004 65.7163 7.79753 66.7174 12.7755L69.4884 26.5544C69.8406 28.3058 69.4933 30.1253 68.5205 31.6249L60.8671 43.423C58.1022 47.6853 60.7819 53.3626 65.8363 53.951L79.827 55.5795C81.6054 55.7865 83.2324 56.6783 84.3613 58.0648L93.2425 68.9728C96.451 72.9136 102.691 72.1252 104.814 67.5109L110.689 54.7385C111.436 53.115 112.789 51.8467 114.46 51.2039L127.602 46.1474C132.35 44.3206 133.526 38.1561 129.784 34.7159L119.425 25.1936C118.108 23.9832 117.317 22.3076 117.22 20.5238L116.462 6.4907Z" fill="#F5D900"/>
</svg>
