<svg width="132" height="90" viewBox="0 0 132 90" fill="none" xmlns="http://www.w3.org/2000/svg">
<path d="M85.5538 73.0953C87.4471 77.7718 91.5094 80.5396 94.6271 79.2774C97.7447 78.0151 98.7372 73.2008 96.8439 68.5243C94.9505 63.8478 90.8883 61.08 87.7706 62.3422C84.6529 63.6045 83.6604 68.4188 85.5538 73.0953Z" fill="white"/>
<path d="M56.8754 7.03345C56.6019 1.96366 51.1018 -1.05788 46.6762 1.43032L34.426 8.31761C32.8689 9.19306 31.0314 9.42573 29.3052 8.96605L15.725 5.34967C10.8188 4.04316 6.24551 8.34028 7.24432 13.3182L10.009 27.0971C10.3604 28.8486 10.0139 30.668 9.04332 32.1677L1.40739 43.9657C-1.35126 48.2281 1.32233 53.9054 6.3653 54.4937L20.3241 56.1222C22.0985 56.3292 23.7218 57.221 24.8481 58.6076L33.7091 69.5156C36.9103 73.4563 43.136 72.668 45.2539 68.0536L51.1162 55.2812C51.8614 53.6577 53.2112 52.3894 54.8779 51.7467L67.9902 46.6901C72.7273 44.8634 73.9014 38.6988 70.1674 35.2587L59.8316 25.7363C58.5179 24.526 57.7288 22.8503 57.6325 21.0666L56.8754 7.03345Z" fill="#90B44B"/>
<path d="M89.3726 54.543C89.3726 39.4073 77.0745 27.1373 61.9041 27.1373H56.3118C54.9551 27.1373 53.5956 27.2193 52.266 27.4891C42.4427 29.4825 39.4267 34.4147 34.8171 41.4098C31.9723 45.7267 21.4644 50.1644 23.3719 63.4867C25.2794 76.8089 39.1035 84.2326 54.274 84.2326H61.9041C77.0745 84.2326 89.3726 71.9627 89.3726 56.8269V54.543Z" fill="white"/>
<path d="M79.1196 76.7658C79.0805 76.8066 79.0168 76.8794 78.9285 76.9843C78.836 77.0892 78.7448 77.2057 78.6549 77.3338C78.5608 77.4619 78.4929 77.5821 78.451 77.6945C78.405 77.8069 78.4098 77.8899 78.4656 77.9434C78.4935 77.9702 78.5608 78.0182 78.6674 78.0875C78.774 78.1568 78.8954 78.2321 79.0317 78.3134C79.1659 78.3969 79.2916 78.4742 79.4087 78.5454C79.5237 78.6145 79.6057 78.6623 79.6546 78.6886C79.6972 78.713 79.7375 78.7311 79.7756 78.7429C79.8116 78.7527 79.8501 78.7361 79.8913 78.6932C79.9057 78.6782 79.917 78.6622 79.925 78.6452C79.9331 78.6282 79.9422 78.6122 79.9524 78.5973C80.0194 78.4802 80.0972 78.3755 80.1857 78.2833C80.2269 78.2404 80.2796 78.1983 80.344 78.157C80.4063 78.1178 80.4675 78.1271 80.5275 78.1847C80.5919 78.2465 80.6378 78.3318 80.6653 78.4406C80.6907 78.5515 80.7047 78.6659 80.7071 78.7836C80.7095 78.9013 80.7074 79.0023 80.7008 79.0866C80.6726 79.3522 80.6583 79.5754 80.6578 79.7563C80.6553 79.9393 80.6925 80.111 80.7694 80.2714C80.8421 80.4318 80.9815 80.6108 81.1875 80.8085L81.2615 80.8795C81.5297 81.1369 81.796 81.3017 82.0604 81.3741C82.3206 81.4465 82.5772 81.4475 82.8302 81.3771C83.0833 81.3067 83.3289 81.1859 83.5673 81.0149C83.8056 80.8438 84.0349 80.6434 84.2552 80.4139C84.3808 80.283 84.5226 80.1223 84.6806 79.9319C84.8387 79.7456 84.9507 79.5687 85.0167 79.4012C85.0327 79.363 85.0415 79.3281 85.0429 79.2966C85.0423 79.2671 85.0248 79.236 84.9905 79.203C84.9798 79.1927 84.9638 79.1815 84.9425 79.1693C84.8082 79.0816 84.6749 78.995 84.5428 78.9094C84.4106 78.8238 84.2795 78.7371 84.1494 78.6494C84.0875 78.6065 84.0277 78.5614 83.9699 78.5143C83.9079 78.4672 83.844 78.4264 83.7781 78.392C83.7504 78.3779 83.7144 78.3639 83.67 78.3501C83.6234 78.3385 83.5868 78.3466 83.56 78.3745C83.5436 78.3916 83.5303 78.4098 83.5202 78.4289C83.5058 78.4481 83.4936 78.4673 83.4835 78.4865C83.4144 78.6015 83.3419 78.7092 83.2662 78.8096C83.1904 78.91 83.1062 79.0085 83.0136 79.105C82.9662 79.1544 82.9145 79.1954 82.8584 79.2281C82.8023 79.2608 82.742 79.2463 82.6777 79.1845C82.6133 79.1228 82.5687 79.049 82.5437 78.9633C82.5212 78.8881 82.5059 78.8095 82.4979 78.7277C82.4857 78.6459 82.4787 78.5651 82.4771 78.4852C82.4729 78.3822 82.476 78.2801 82.4865 78.179C82.4971 78.0778 82.5065 77.9756 82.5149 77.8724C82.5483 77.5541 82.5168 77.3013 82.4204 77.114C82.3218 76.9247 82.1609 76.7187 81.9375 76.4962L81.9086 76.4684C81.5824 76.1555 81.2601 75.976 80.9415 75.93C80.6209 75.8819 80.3076 75.9357 80.0016 76.0914C79.6957 76.247 79.4016 76.4718 79.1196 76.7658Z" fill="#90B44B"/>
<path d="M72.5975 81.61C72.5023 81.6812 72.4921 81.7669 72.5669 81.8669C72.656 81.9859 72.7507 82.1026 72.8511 82.2169C72.9515 82.3312 73.0486 82.4461 73.1424 82.5616C73.339 82.8044 73.5344 83.0482 73.7286 83.2929C73.9205 83.5393 74.1099 83.7875 74.297 84.0375C74.4983 84.3065 74.6961 84.5783 74.8903 84.8527C75.0803 85.1264 75.2712 85.4014 75.463 85.6776C75.5562 85.8121 75.6479 85.9496 75.7382 86.0901C75.8243 86.2299 75.9172 86.3665 76.017 86.4999C76.0829 86.5879 76.1623 86.5973 76.2551 86.5278L77.6087 85.5149C77.6611 85.4757 77.6891 85.4362 77.6927 85.3964C77.6939 85.3583 77.6791 85.3137 77.6482 85.2625C77.59 85.1649 77.525 85.0706 77.4532 84.9795C77.3795 84.886 77.31 84.7932 77.2447 84.7009C77.1117 84.5182 76.9808 84.3358 76.8519 84.1536C76.7207 83.9733 76.5873 83.7926 76.4519 83.6117C76.4448 83.6021 76.4371 83.5893 76.4288 83.5733C76.4163 83.5566 76.4184 83.542 76.4351 83.5296L77.9601 82.3885C77.972 82.3795 77.9853 82.3825 78.0002 82.3974C78.0133 82.4099 78.0234 82.4209 78.0305 82.4305C78.1659 82.6114 78.3016 82.7903 78.4376 82.9671C78.5736 83.1439 78.7117 83.3209 78.8518 83.4983C78.9237 83.5894 78.9944 83.6814 79.0639 83.7742C79.131 83.8689 79.2031 83.9579 79.2804 84.0412C79.3207 84.0853 79.3594 84.1121 79.3962 84.1216C79.4307 84.133 79.4753 84.1182 79.5301 84.0772L80.8801 83.067C80.9753 82.9957 80.9855 82.9101 80.9107 82.8101C80.8145 82.6815 80.7123 82.5574 80.6042 82.4378C80.4943 82.3157 80.3889 82.1922 80.2879 82.0672C80.0747 81.807 79.8648 81.5463 79.6581 81.285C79.4496 81.0213 79.2447 80.7549 79.0434 80.4859C78.8563 80.2359 78.6728 79.9832 78.4929 79.7279C78.3106 79.4743 78.1307 79.219 77.9531 78.9618C77.8688 78.8392 77.786 78.7136 77.7047 78.5851C77.6233 78.4565 77.5381 78.3327 77.449 78.2137C77.3742 78.1137 77.2892 78.0993 77.1939 78.1706L75.8546 79.1727C75.7594 79.244 75.7471 79.3293 75.8178 79.4287C75.8843 79.5275 75.9541 79.6257 76.0271 79.7234C76.0984 79.8186 76.1685 79.9147 76.2373 80.0117L77.0096 81.0662C77.0168 81.0757 77.0266 81.0888 77.039 81.1055C77.0473 81.1215 77.0432 81.1358 77.0265 81.1483L75.5051 82.2867C75.4908 82.2974 75.4771 82.2965 75.464 82.284C75.451 82.2715 75.4409 82.2605 75.4337 82.251C75.2983 82.07 75.1638 81.8902 75.0302 81.7117C74.8942 81.5349 74.7573 81.3569 74.6195 81.1777C74.5495 81.089 74.4809 80.9974 74.4138 80.9027C74.3443 80.8099 74.2709 80.7218 74.1937 80.6384C74.1533 80.5944 74.1147 80.5676 74.0778 80.558C74.0409 80.5485 73.9963 80.5633 73.9439 80.6025L72.5975 81.61Z" fill="#90B44B"/>
<path d="M70.8622 81.6939C70.8179 81.5771 70.7402 81.5397 70.629 81.5819L66.7286 83.0587C66.6201 83.0998 66.5853 83.1718 66.6243 83.2747C66.6833 83.4304 66.7469 83.5859 66.8153 83.7413C66.8798 83.8949 66.9444 84.0486 67.0089 84.2022C67.0475 84.2957 67.0852 84.3911 67.1221 84.4885C67.1561 84.5868 67.1952 84.6817 67.2394 84.7731C67.2926 84.8802 67.3707 84.9142 67.4736 84.8752L69.5343 84.095C69.5705 84.0813 69.6016 84.1045 69.6275 84.1646C69.6507 84.2258 69.6665 84.2675 69.6749 84.2898C69.6812 84.3064 69.6905 84.3395 69.7029 84.3889C69.7114 84.4365 69.7031 84.4651 69.6781 84.4746L67.9302 85.1364C67.819 85.1785 67.7849 85.2566 67.8281 85.3706L68.1946 86.3384C68.2377 86.4524 68.3149 86.4884 68.4262 86.4463L70.1574 85.7907C70.2074 85.7718 70.2419 85.7873 70.2609 85.8374C70.2798 85.8875 70.2967 85.932 70.3114 85.9709C70.3178 85.9876 70.3266 86.0192 70.3378 86.0658C70.3481 86.1096 70.3393 86.1368 70.3115 86.1474L68.1522 86.9697C68.041 87.0118 68.005 87.089 68.0443 87.2013C68.1325 87.451 68.2161 87.7055 68.2953 87.9649C68.3734 88.2215 68.4593 88.4735 68.553 88.721C68.5972 88.8378 68.675 88.8752 68.7862 88.8331L72.8117 87.3088C72.923 87.2667 72.9565 87.1872 72.9123 87.0704C72.8543 86.9175 72.7928 86.7675 72.7276 86.6205C72.6585 86.4717 72.5923 86.3219 72.5288 86.1711C72.3966 85.8555 72.2677 85.5402 72.1421 85.2253C72.0164 84.9103 71.8931 84.593 71.772 84.2731C71.6625 83.9839 71.5571 83.6931 71.456 83.4007C71.352 83.1094 71.25 82.8189 71.1499 82.5293C71.1 82.3892 71.0534 82.2494 71.0102 82.11C70.9631 81.9689 70.9138 81.8301 70.8622 81.6939Z" fill="#90B44B"/>
<path d="M65.3191 83.0248C65.3014 82.9012 65.2337 82.8478 65.1159 82.8646L60.9874 83.4557C60.8726 83.4721 60.823 83.5348 60.8386 83.6437C60.8622 83.8086 60.8904 83.9742 60.9232 84.1408C60.9527 84.3048 60.9822 84.4688 61.0117 84.6328C61.029 84.7324 61.045 84.8338 61.0597 84.9368C61.0715 85.0403 61.089 85.1414 61.1122 85.2402C61.1408 85.3563 61.2096 85.4065 61.3185 85.3909L63.4998 85.0787C63.5381 85.0732 63.5633 85.1026 63.5755 85.167C63.5848 85.2317 63.5911 85.2759 63.5945 85.2994C63.597 85.3171 63.5989 85.3514 63.6002 85.4022C63.5981 85.4506 63.5838 85.4767 63.5573 85.4805L61.7072 85.7453C61.5894 85.7622 61.5392 85.831 61.5565 85.9517L61.7031 86.9761C61.7204 87.0968 61.7879 87.1487 61.9057 87.1318L63.7381 86.8695C63.7911 86.8619 63.8214 86.8846 63.829 86.9376C63.8366 86.9906 63.8433 87.0377 63.8492 87.0789C63.8517 87.0966 63.8534 87.1294 63.8543 87.1773C63.8547 87.2223 63.8402 87.2469 63.8108 87.2511L61.5242 87.583C61.4064 87.5998 61.3545 87.6674 61.3684 87.7855C61.4 88.0484 61.4262 88.315 61.4469 88.5854C61.4671 88.8528 61.496 89.1176 61.5335 89.3796C61.5512 89.5032 61.619 89.5566 61.7367 89.5397L65.9977 88.9297C66.1155 88.9129 66.1655 88.8426 66.1478 88.719C66.1246 88.5571 66.0972 88.3973 66.0656 88.2396C66.0307 88.0794 65.9987 87.9187 65.9696 87.7577C65.9094 87.4208 65.8523 87.085 65.7984 86.7503C65.7444 86.4156 65.6932 86.0789 65.6448 85.7404C65.6009 85.4342 65.5615 85.1275 65.5265 84.8201C65.4886 84.5131 65.4523 84.2073 65.4178 83.9029C65.3996 83.7553 65.3847 83.6087 65.3728 83.4632C65.3577 83.3152 65.3397 83.169 65.3191 83.0248Z" fill="#90B44B"/>
<path d="M59.1149 83.2394C59.1149 83.1145 59.0554 83.0521 58.9364 83.0521H56.5946C56.2081 83.0521 55.8393 83.0967 55.4884 83.1859C55.1345 83.2751 54.8208 83.4163 54.5472 83.6096C54.2737 83.8 54.0581 84.0483 53.9005 84.3546C53.7399 84.6579 53.6596 85.0266 53.6596 85.4608C53.6596 86.228 53.8841 86.8242 54.3331 87.2495C54.7792 87.6747 55.3814 87.8873 56.1397 87.8873H57.0229C57.0556 87.8873 57.0719 87.9067 57.0719 87.9453C57.0719 88.0018 57.0734 88.0598 57.0764 88.1193C57.0794 88.1758 57.0808 88.2338 57.0808 88.2932C57.0808 88.4033 57.0794 88.5207 57.0764 88.6456C57.0704 88.7675 57.0749 88.885 57.0898 88.998C57.0987 89.0605 57.1136 89.1066 57.1344 89.1363C57.1552 89.166 57.2013 89.1809 57.2726 89.1809H58.9543C59.0732 89.1809 59.1327 89.1184 59.1327 88.9936C59.1327 88.833 59.1268 88.6709 59.1149 88.5073C59.103 88.3438 59.094 88.1817 59.0881 88.0211C59.0732 87.6851 59.0628 87.3491 59.0569 87.0131C59.048 86.6741 59.0435 86.335 59.0435 85.996C59.0435 85.6957 59.0465 85.3954 59.0524 85.095C59.0554 84.7947 59.0628 84.4943 59.0747 84.194C59.0807 84.0364 59.0896 83.8773 59.1015 83.7167C59.1104 83.5561 59.1149 83.397 59.1149 83.2394ZM56.3805 86.3484C56.0832 86.3484 55.8854 86.2622 55.7873 86.0897C55.6891 85.9143 55.6401 85.6957 55.6401 85.434C55.6401 84.9523 55.8869 84.7114 56.3805 84.7114H57.0719C57.0719 84.982 57.0704 85.2541 57.0675 85.5277C57.0645 85.8013 57.066 86.0748 57.0719 86.3484H56.3805Z" fill="#90B44B"/>
<path d="M52.3875 83.202C52.3916 83.0772 52.3342 83.0128 52.2153 83.0089L47.9043 82.8678C47.7854 82.8639 47.7241 82.917 47.7205 83.0269C47.7118 83.2944 47.7104 83.5636 47.7164 83.8346C47.7194 84.1054 47.721 84.3748 47.7212 84.6425C47.7202 84.7645 47.7776 84.8274 47.8936 84.8312L50.243 84.9081C50.2757 84.9091 50.2915 84.926 50.2904 84.9587L50.2779 85.3421C50.2763 85.3897 50.2518 85.4127 50.2042 85.4111L48.2649 85.3476C48.146 85.3437 48.0846 85.4027 48.0806 85.5246C48.0728 85.7624 48.0635 86.0016 48.0527 86.2422C48.0418 86.4829 48.0325 86.7221 48.0247 86.9598C48.0208 87.0787 48.0783 87.1401 48.1972 87.144L50.1677 87.2085C50.2004 87.2096 50.2162 87.2264 50.2152 87.2591C50.2063 87.5296 50.1974 87.8016 50.1885 88.075C50.1796 88.3455 50.1737 88.6175 50.1707 88.8911C50.1726 89.0132 50.2316 89.0761 50.3475 89.0799L52.0282 89.1349C52.1471 89.1388 52.2086 89.0783 52.2127 88.9535C52.218 88.79 52.2189 88.6279 52.2152 88.4671C52.2087 88.3033 52.2051 88.1395 52.2045 87.9758C52.2038 87.6337 52.206 87.2931 52.2112 86.954C52.2163 86.615 52.2245 86.2746 52.2357 85.9328C52.2458 85.6237 52.2604 85.3148 52.2794 85.006C52.2955 84.6971 52.3129 84.3897 52.3319 84.0838C52.3397 83.9353 52.3505 83.7884 52.3642 83.6431C52.375 83.4947 52.3828 83.3476 52.3875 83.202Z" fill="#90B44B"/>
<path d="M44.0568 81.9383C43.6789 81.8727 43.3165 81.8475 42.9698 81.8627C42.6207 81.8745 42.3024 81.943 42.0151 82.0681C41.7253 82.1899 41.4823 82.3816 41.2859 82.6433C41.0866 82.9044 40.9496 83.2504 40.8748 83.681L40.8687 83.7162C40.8106 84.0683 40.8156 84.4132 40.8837 84.751C40.9523 85.0859 41.1108 85.3896 41.3593 85.6621C41.4073 85.7158 41.4578 85.7638 41.5108 85.8062C41.5638 85.8486 41.6163 85.8939 41.6683 85.9422C41.6736 85.9461 41.6811 85.955 41.6908 85.9687L41.6929 85.9827C41.6904 85.9973 41.6432 86.0434 41.5512 86.121C41.4563 86.1981 41.3391 86.291 41.1995 86.3995C41.0575 86.5046 40.9135 86.6124 40.7676 86.7229C40.6221 86.8305 40.4939 86.9259 40.3828 87.0092C40.2694 87.0891 40.1952 87.1426 40.1603 87.1698C40.1323 87.1921 40.1008 87.2168 40.0659 87.2439C40.031 87.2711 40.01 87.3052 40.0029 87.3462C39.9937 87.3989 40.0206 87.4353 40.0835 87.4553C40.1465 87.4752 40.1955 87.4883 40.2307 87.4944L42.0809 87.8157C42.1336 87.8249 42.1863 87.8084 42.2389 87.7662C42.2738 87.739 42.337 87.6791 42.4286 87.5863C42.5177 87.4901 42.6211 87.3813 42.7388 87.2599C42.8535 87.138 42.9663 87.0187 43.0771 86.9021C43.1879 86.7856 43.2829 86.6904 43.3621 86.6166C43.4418 86.5399 43.489 86.5028 43.5036 86.5054C43.5476 86.513 43.5694 86.5349 43.5692 86.5711C43.5659 86.6248 43.5592 86.681 43.549 86.7396C43.5393 86.7953 43.5299 86.8495 43.5207 86.9022C43.4933 87.0604 43.4641 87.2199 43.4332 87.3805C43.3998 87.5377 43.377 87.6952 43.3647 87.853C43.3599 87.9156 43.3666 87.9635 43.385 87.9969C43.4033 88.0303 43.4462 88.0528 43.5136 88.0645L45.1704 88.3522C45.2876 88.3726 45.3569 88.3212 45.3783 88.1982C45.4057 88.04 45.4276 87.8793 45.4439 87.7161C45.4601 87.5529 45.4791 87.3917 45.5007 87.2325C45.5435 86.8989 45.5908 86.566 45.6424 86.2339C45.6916 85.8984 45.7452 85.5636 45.8033 85.2296C45.8562 84.9249 45.9123 84.6193 45.9715 84.3126C46.0308 84.006 46.0928 83.7014 46.1574 83.3987C46.1858 83.2527 46.2186 83.1075 46.2557 82.963C46.2905 82.8151 46.3203 82.6694 46.3452 82.5259C46.3666 82.4028 46.3187 82.3311 46.2015 82.3107L44.0568 81.9383ZM43.3282 84.9085C43.1671 84.8805 43.0533 84.823 42.9869 84.736C42.9211 84.6461 42.8854 84.5388 42.8799 84.4141C42.8744 84.2894 42.8831 84.1611 42.906 84.0293C42.9385 83.8417 43.0091 83.7046 43.1178 83.6178C43.2235 83.5306 43.373 83.5037 43.5664 83.5373L44.0806 83.6266C44.0409 83.8551 44.0012 84.0836 43.9615 84.3122C43.9189 84.5402 43.8777 84.7685 43.838 84.997L43.3282 84.9085Z" fill="#90B44B"/>
<path d="M34.1705 78.1619C34.2412 78.0626 34.2269 77.9776 34.1275 77.9069L32.7683 76.9396C32.669 76.8689 32.5839 76.8833 32.5132 76.9826C32.2632 77.3339 32.016 77.689 31.7716 78.0479C31.5288 78.4044 31.2816 78.7595 31.0299 79.1133C30.723 79.5445 30.4121 79.9711 30.0972 80.3931C29.7824 80.815 29.4715 81.2417 29.1646 81.6729C29.0939 81.7723 29.1082 81.8573 29.2075 81.928L30.5813 82.9056C30.6782 82.9745 30.762 82.9593 30.8327 82.86C31.1396 82.4287 31.442 81.9961 31.7399 81.5621C32.0354 81.1263 32.3366 80.6928 32.6435 80.2616C32.8952 79.9078 33.1497 79.5579 33.407 79.2117C33.666 78.8632 33.9205 78.5132 34.1705 78.1619Z" fill="#90B44B"/>
<path d="M38.4339 80.5358C38.3225 80.4863 38.242 80.5172 38.1925 80.6286C37.957 81.1585 37.7188 81.6872 37.4778 82.2147C37.2381 82.7395 37.0005 83.2668 36.765 83.7967C36.6647 84.0223 36.5382 84.1531 36.3854 84.1894C36.2312 84.2217 36.048 84.1907 35.8361 84.0965C35.6431 84.0108 35.5006 83.8921 35.4085 83.7406C35.3164 83.589 35.3175 83.4072 35.4117 83.1953C35.6472 82.6654 35.8794 82.1356 36.1083 81.606C36.3383 81.0737 36.5711 80.5426 36.8066 80.0127C36.8561 79.9013 36.8252 79.8208 36.7138 79.7713L35.2056 79.101C35.0969 79.0527 35.0172 79.0856 34.9665 79.1998C34.9037 79.3411 34.8457 79.4862 34.7926 79.635C34.7406 79.7811 34.686 79.9261 34.6286 80.0698C34.5139 80.3572 34.3945 80.6442 34.2704 80.9308C34.1475 81.2146 34.0232 81.4978 33.8976 81.7804L33.5987 82.453C33.4502 82.7872 33.3822 83.1231 33.3949 83.4607C33.4061 83.7943 33.4839 84.1136 33.6282 84.4186C33.7698 84.7223 33.9639 84.9957 34.2106 85.2388C34.4558 85.4779 34.7373 85.6681 35.0553 85.8094C35.5444 86.0268 36.0115 86.14 36.4566 86.1491C36.9016 86.1581 37.3032 86.0454 37.6613 85.8108C38.0206 85.5734 38.3162 85.1939 38.5481 84.6722C38.7244 84.2754 38.9013 83.8773 39.0789 83.4778C39.2564 83.0784 39.4415 82.6839 39.6341 82.2944C39.7023 82.1555 39.7733 82.0178 39.847 81.8814C39.9218 81.7422 39.9907 81.6019 40.0535 81.4606C40.1042 81.3465 40.0752 81.2653 39.9665 81.217L38.4339 80.5358Z" fill="#90B44B"/>
<path d="M31.3428 75.7846C31.4234 75.6892 31.4182 75.6031 31.3274 75.5264L28.172 72.8609C28.0811 72.7842 27.9954 72.7935 27.9148 72.8889C27.8208 73.0002 27.7292 73.1155 27.64 73.2349C27.5506 73.35 27.4601 73.4663 27.3687 73.5837C27.2942 73.6765 27.2197 73.7693 27.1452 73.8621C27.0704 73.9507 26.9969 74.0423 26.9247 74.1371C26.8483 74.2321 26.8555 74.318 26.9464 74.3948L27.7233 75.0511C27.7528 75.076 27.7551 75.1032 27.7302 75.1328L27.2811 75.6644C26.9338 76.0755 26.5819 76.4829 26.2255 76.8864C25.8691 77.2899 25.5172 77.6972 25.1699 78.1084C25.0912 78.2015 25.0984 78.2874 25.1916 78.3661L26.4796 79.4542C26.5682 79.529 26.6518 79.5198 26.7305 79.4267C27.0471 79.0519 27.3604 78.6742 27.6702 78.2936C27.98 77.913 28.2932 77.5353 28.6098 77.1605L29.2431 76.4108C29.268 76.3813 29.2942 76.378 29.3214 76.401L30.02 76.9911C30.1108 77.0679 30.1967 77.0607 30.2777 76.9694C30.359 76.8824 30.4371 76.7946 30.5119 76.706C30.5887 76.6151 30.6677 76.5262 30.749 76.4391C30.8472 76.3275 30.9467 76.2189 31.0476 76.1133C31.1504 76.0055 31.2487 75.8959 31.3428 75.7846Z" fill="#90B44B"/>
<path d="M42.997 67.3419C43.4783 67.3419 44.4894 66.9798 44.6993 66.8112C44.9048 66.6354 46.6025 66.05 45.08 64.6163C43.5575 63.1827 43.2505 64.867 42.4154 64.6774C41.5804 64.4879 41.2489 64.6163 40.2521 63.3855C40.1317 62.6242 39.7569 61.3788 40.1317 60.3404C40.3606 60.1452 42.1731 59.6879 42.2944 59.523C42.4113 59.3508 42.4912 59.1759 42.5341 58.9983C42.5942 58.7497 42.5881 58.5289 42.5157 58.3359C42.4374 58.1416 42.3195 57.9815 42.1619 57.8556C41.9999 57.7225 41.8212 57.6323 41.6259 57.585C41.4779 57.5492 41.3411 57.5318 41.2155 57.5328C41.0841 57.5323 40.9432 57.5578 40.7929 57.6092C40.6367 57.6591 40.4565 57.744 40.2521 57.8637C40.0432 57.9761 39.7844 58.1266 39.4756 58.3151C39.2184 57.902 39.0032 57.5868 38.8302 57.3695C38.6586 57.1463 38.5001 56.9858 38.3545 56.8879C38.2031 56.7887 38.0327 56.7161 37.8433 56.6703C37.642 56.6217 37.4418 56.6202 37.2428 56.6661C37.0378 56.7105 36.859 56.802 36.7065 56.9405C36.548 57.0777 36.4394 57.2676 36.3807 57.5103C36.3378 57.6879 36.3348 57.8814 36.3719 58.0909C36.4104 58.2944 36.4958 58.5375 36.6279 58.8201C36.7542 59.1012 36.9282 59.444 37.1499 59.8485C37.1499 61.4823 37.3431 61.484 37.0865 62.7742C36.83 64.0645 34.5565 64.3351 34.1758 64.1639C33.7952 63.9926 33.0374 62.6315 32.4188 62.933C31.8003 63.2345 31.892 63.972 31.892 64.3732C31.892 64.7745 32.2727 65.3668 32.6533 65.7475C33.0339 66.1281 33.7952 66.7289 34.5462 66.7289C35.2971 66.7289 35.7385 66.8088 36.8197 66.3588C37.1053 66.2399 38.2665 65.3754 38.5593 65.227C38.7505 65.4987 39.1707 66.1943 39.3704 66.4306C39.5643 66.6654 40.5123 67.1919 41.2489 67.3419C41.9855 67.4919 42.5157 67.3419 42.997 67.3419Z" fill="#90B44B"/>
<path d="M89.3067 61.7237C88.1759 62.7103 88.7203 66.9817 88.9265 67.2331C89.9068 68.429 90.881 69.6299 91.849 70.8358C92.8121 72.0356 94.0298 72.6623 95.0102 73.8582C95.4274 74.3672 96.0019 75.4147 96.1735 75.7484C96.3452 76.082 96.173 77.3618 95.8144 77.6557C95.4558 77.9497 94.6855 78.8105 93.9243 78.8191C93.1631 78.8277 92.078 78.8455 90.4945 78.4772C88.911 78.1089 88.5785 77.3569 87.4719 75.4717C85.6929 72.4409 86.7791 70.993 85.7988 69.7971C85.5927 69.5456 85.3639 69.523 85.1125 69.7291L83.592 70.9476C83.592 70.9476 82.8161 72.7165 82.8566 73.2399C82.8971 73.7633 83.052 74.7456 83.3257 75.0544C83.873 75.6721 84.4137 76.3004 84.9477 76.9393C85.4767 77.5721 86.0026 78.2074 86.5255 78.8452L87.7697 80.363C88.3881 81.1173 89.107 81.6816 89.9264 82.0557C90.7347 82.4288 91.5885 82.626 92.4879 82.6475C93.3812 82.674 94.2652 82.539 95.1398 82.2424C96.0032 81.9448 96.7936 81.5019 97.5112 80.9137C98.615 80.0087 99.4443 79.0316 99.9991 77.9821C100.554 76.9326 100.766 75.8408 100.636 74.7066C100.501 73.5663 99.9511 72.4074 98.9858 71.2299C98.2518 70.3346 97.5153 69.4361 96.7763 68.5346C96.0373 67.6331 95.3192 66.7196 94.622 65.7941C94.3728 65.4651 94.1298 65.1312 93.8929 64.7922C93.651 64.447 93.3993 64.115 93.1379 63.7961C92.9268 63.5385 92.2665 63.0667 92.2665 63.0667C92.2665 63.0667 90.4376 60.7371 89.3067 61.7237Z" fill="#90B44B"/>
<path d="M48.3278 50.4038C47.9429 51.2679 48.565 52.3845 49.7172 52.8976C50.8694 53.4108 52.1155 53.1262 52.5003 52.2621C52.8852 51.3979 52.2632 50.2814 51.111 49.7682C49.9587 49.2551 48.7127 49.5396 48.3278 50.4038Z" fill="#90B44B"/>
<path d="M32.8914 51.1376C33.4907 51.6497 34.5301 51.417 35.2129 50.6179C35.8957 49.8188 35.9633 48.7558 35.364 48.2437C34.7647 47.7317 33.7253 47.9643 33.0425 48.7635C32.3597 49.5626 32.292 50.6255 32.8914 51.1376Z" fill="#90B44B"/>
<path fill-rule="evenodd" clip-rule="evenodd" d="M79.2943 58.9836C83.0453 50.5445 80.5224 41.7556 74.3812 39.026L75.3088 36.9391C83.0337 40.3726 85.4292 50.8041 81.3812 59.9112C77.5368 68.5605 68.9113 73.696 61.4363 71.2491C60.8134 71.9324 59.9161 72.3611 58.9187 72.3611C57.0377 72.3611 55.5128 70.8363 55.5128 68.9553C55.5128 67.0743 57.0377 65.5495 58.9187 65.5495C60.7997 65.5495 62.3245 67.0743 62.3245 68.9553C62.3245 69.0139 62.323 69.0722 62.3201 69.1301C68.3035 70.9383 75.7695 66.9136 79.2943 58.9836Z" fill="#666666"/>
<path d="M116.497 7.03345C116.223 1.96366 110.723 -1.05788 106.298 1.43032L94.0475 8.31761C92.4904 9.19306 90.6529 9.42573 88.9267 8.96605L75.3465 5.34967C70.4403 4.04316 65.867 8.34028 66.8659 13.3182L69.6305 27.0971C69.982 28.8486 69.6354 30.668 68.6648 32.1677L61.0289 43.9657C58.2703 48.2281 60.9439 53.9054 65.9868 54.4937L79.9457 56.1222C81.72 56.3292 83.3433 57.221 84.4696 58.6076L93.3306 69.5156C96.5319 73.4563 102.757 72.668 104.875 68.0536L110.738 55.2812C111.483 53.6577 112.833 52.3894 114.499 51.7467L127.612 46.6901C132.349 44.8634 133.523 38.6988 129.789 35.2587L119.453 25.7363C118.139 24.526 117.35 22.8503 117.254 21.0666L116.497 7.03345Z" fill="#F5D900"/>
<path d="M39.9087 67.154C39.9087 66.3256 40.5803 65.654 41.4087 65.654C42.2371 65.654 42.9087 66.3256 42.9087 67.154H39.9087ZM36.8185 66.0121C36.8185 66.8237 36.8297 67.4827 37.0013 67.95C37.073 68.1452 37.1412 68.2091 37.17 68.2307C37.1876 68.2439 37.2874 68.3184 37.6023 68.3184V71.3184C36.7611 71.3184 35.9973 71.1011 35.3699 70.6306C34.7537 70.1684 34.3955 69.5567 34.1852 68.9842C33.793 67.9162 33.8185 66.672 33.8185 66.0121H36.8185ZM37.6023 68.3184C38.5131 68.3184 39.1364 68.0826 39.49 67.8252C39.8286 67.5788 39.9087 67.3361 39.9087 67.154H42.9087C42.9087 69.8597 40.2685 71.3184 37.6023 71.3184V68.3184Z" fill="#90B44B"/>
</svg>
