<?xml version="1.0" encoding="utf-8"?>
<!-- Generator: Adobe Illustrator 18.0.0, SVG Export Plug-In . SVG Version: 6.00 Build 0)  -->
<!DOCTYPE svg PUBLIC "-//W3C//DTD SVG 1.1//EN" "http://www.w3.org/Graphics/SVG/1.1/DTD/svg11.dtd">
<svg version="1.1" id="Capa_1" xmlns="http://www.w3.org/2000/svg" xmlns:xlink="http://www.w3.org/1999/xlink" x="0px" y="0px"
	 viewBox="0 0 512 512" enable-background="new 0 0 512 512" xml:space="preserve">
<g>
	<path d="M298.7,242.8c0.2,2.1,1.6,3.9,3.5,4.9c2.4,1.2,5.1,1.9,7.9,2c0.9,0,1.9,0,2.8-0.1c11-1.1,18.9-11.2,17.8-22.5l0,0
		c-0.2-2.1-1.6-3.9-3.5-4.9c-2.4-1.2-5.1-1.9-7.9-2c-0.9,0-1.9,0-2.8,0.1C305.5,221.5,297.6,231.5,298.7,242.8L298.7,242.8z"/>
	<path d="M222.8,360.6C222.8,360.6,222.8,360.6,222.8,360.6C222.9,360.6,222.9,360.6,222.8,360.6c13.7,0,25.8-6.8,33.2-17.1
		c7.4,10.3,19.5,17.1,33.1,17.1c0,0,0,0,0,0c0,0,0,0,0,0c4.1,0,7.5-3.4,7.5-7.5s-3.4-7.5-7.5-7.5c-11.8,0-21.8-8-24.8-18.9
		c7.8-1.4,14.3-4.8,18-9.6c2.5-3.3,1.9-8-1.4-10.5c-0.8-0.6-1.8-1.1-2.7-1.3c-2.8-0.7-6,0.2-7.9,2.7c-1.3,1.7-6.4,4.5-14.4,4.5
		c-8,0-13.1-2.8-14.4-4.5c-1.9-2.5-5-3.4-7.9-2.7c-1,0.2-1.9,0.7-2.7,1.3c-3.3,2.5-3.9,7.2-1.4,10.5c3.7,4.8,10.2,8.2,18,9.6
		c-3,10.9-12.9,18.9-24.8,18.9c-4.1,0-7.5,3.4-7.5,7.5S218.7,360.6,222.8,360.6z"/>
	<path d="M480.6,129.7c-6.7-2.1-13.6-3.2-20.7-3.4c-0.8,0-1.5,0-2.2,0c-9.6,0-19.2,1.8-28.3,5.2c-0.1,0-0.4,0.2-0.8,0.3
		c-0.5,0.2-1,0.4-1.5,0.6c-1.4,0.6-2.6,1.2-3.9,1.9c-0.6,0.3-1.1,0.5-1.2,0.6c-4.7-6.2-11.8-10.2-19.5-10.7
		c0.2-4.3-0.7-8.7-2.8-12.7c-4.7-9.2-14.1-15.1-24.1-15.1c0,0,0,0,0,0c0,0,0,0,0,0c-1.2,0-2.4,0.1-3.6,0.3c-0.6-3.4-1.8-6.6-3.7-9.6
		c-5-7.8-13.9-12.6-23.1-12.6c0,0,0,0,0,0c0,0,0,0,0,0c-3.1,0-6,0.5-8.8,1.6c-0.9-2.3-2.2-4.6-3.8-6.6c-5.1-6.3-13.1-10.1-21.5-10.1
		c0,0,0,0,0,0c0,0,0,0,0,0c-5.1,0-9.8,1.4-13.8,3.9c-0.9-1.4-2-2.6-3.1-3.8c-5-5-12-7.8-19.3-7.8c0,0,0,0,0,0c0,0,0,0,0,0
		c-7.3,0-13.8,2.7-18.5,7.4c-4.7-4.7-11.2-7.4-18.5-7.4c0,0,0,0,0,0c0,0,0,0,0,0c-7.3,0-14.4,2.8-19.3,7.8c-1.2,1.2-2.2,2.5-3.1,3.8
		c-4-2.6-8.7-3.9-13.8-3.9c0,0,0,0,0,0c0,0,0,0,0,0c-8.3,0-16.4,3.8-21.5,10.1c-1.6,2-2.9,4.2-3.8,6.6c-2.8-1-5.7-1.6-8.8-1.6
		c0,0,0,0,0,0c0,0,0,0,0,0c-9.2,0-18.1,4.8-23.1,12.6c-1.9,3-3.2,6.2-3.7,9.6c-1.2-0.2-2.4-0.3-3.6-0.3c0,0,0,0,0,0c0,0,0,0,0,0
		c-10,0-19.5,5.9-24.1,15.1c-2.1,4.1-3,8.4-2.8,12.7c-7.7,0.5-14.8,4.5-19.5,10.7c-0.1-0.1-0.5-0.3-1.2-0.6
		c-1.3-0.7-2.6-1.3-3.9-1.9c-0.5-0.2-1-0.4-1.5-0.6c-0.4-0.2-0.7-0.3-0.8-0.3c-9.1-3.5-18.7-5.2-28.3-5.2c-0.7,0-1.4,0-2.2,0
		c-7.1,0.2-14.1,1.4-20.7,3.4C15.3,134.2-0.6,143.6,0,159c0,1.2,0.1,2.4,0.4,3.5c4.9,25.5,23.6,47.3,48.8,56.8
		c0.5,0.2,5.3,1.6,5.3,1.8c0.4,5,2.1,10,5.4,14.3c-5.9,4.8-9.4,12.1-9.4,20.6c0,8.5,3.5,15.8,9.4,20.6c-4.8,6.1-6.3,13.8-5.2,20.7
		c1.4,8.9,6.6,15.9,13.8,19.7c-2.8,5.5-3.5,12-1.7,18.5c2.5,9.5,9.7,16.7,18.5,19.2c-1.3,5.1-1.1,10.5,1,15.8
		c3.9,10.1,13.1,17,23.3,17.6c-0.2,4.3,0.7,8.7,2.8,12.7c4.4,8.6,13,14.4,22.3,15.1c0.6,0,1.2,0.1,1.9,0.1c1.2,0,2.4-0.1,3.6-0.3
		c0.6,3.4,1.8,6.6,3.7,9.6c5,7.8,13.9,12.6,23.1,12.6c0,0,0,0,0,0c0,0,0,0,0,0c3.1,0,6-0.5,8.8-1.6c0.9,2.3,2.2,4.6,3.8,6.6
		c5.1,6.3,13.1,10.1,21.5,10.1c0,0,0,0,0,0c0,0,0,0,0,0c5.1,0,9.8-1.4,13.8-3.9c0.9,1.4,2,2.6,3.1,3.8c5,5,12,7.8,19.3,7.8
		c0,0,0,0,0,0c0,0,0,0,0,0c7.3,0,13.8-2.7,18.5-7.4c4.7,4.7,11.2,7.4,18.5,7.4c0,0,0,0,0,0c0,0,0,0,0,0c7.3,0,14.3-2.8,19.3-7.8
		c1.2-1.2,2.2-2.5,3.1-3.8c4,2.6,8.7,3.9,13.8,3.9c0,0,0,0,0,0c0,0,0,0,0,0c8.3,0,16.4-3.8,21.5-10.1c1.6-2,2.9-4.2,3.8-6.6
		c2.8,1,5.7,1.6,8.8,1.6c0,0,0,0,0,0c0,0,0,0,0,0c9.2,0,18-4.8,23.1-12.6c1.9-3,3.2-6.2,3.7-9.6c1.2,0.2,2.4,0.3,3.6,0.3
		c0,0,0,0,0.1,0c0,0,0,0,0,0c10,0,19.5-5.9,24.1-15.1c2.1-4.1,3-8.4,2.8-12.7c10.2-0.6,19.4-7.5,23.3-17.6c2-5.2,2.3-10.7,1-15.8
		c8.8-2.5,16-9.7,18.5-19.2c1.7-6.5,1-13-1.7-18.5c7.2-3.7,12.4-10.8,13.8-19.7c1.1-6.9-0.4-14.6-5.2-20.7
		c5.9-4.8,9.4-12.1,9.4-20.6c0-8.5-3.5-15.8-9.4-20.6c3.3-4.2,5.1-9.3,5.4-14.3c0-0.2,4.8-1.6,5.3-1.8c25.2-9.6,43.9-31.4,48.8-56.8
		c0.2-1.2,0.3-2.4,0.4-3.5C512.6,143.6,496.7,134.2,480.6,129.7z M415.9,339.8c-0.9-0.3-1.9-0.4-2.7-0.4c-6.1,0.3-9.8,8.5-4.7,13.1
		c0.8,0.7,1.5,1.5,2,2.3c5.5,8.1-2.1,19.1-11.2,17.9c0,0,0,0,0,0c-0.3,0-0.7-0.1-1-0.2c0,0-0.1,0-0.1,0c-1.1-0.3-2.1-0.7-3.2-1.3
		c-1.7-1-3.5-1.2-5.1-0.9c-4.8,1-8.3,7-4.8,11.8c4.9,6.7,1,14.6-5.1,17.4c-3.7,1.7-8.3,1.5-12.1-2c-1.3-1.2-2.7-1.7-4.2-1.9
		c-5.2-0.5-10.3,4.8-7.7,10.5c2.9,6.4-0.5,12.3-5.5,14.9c-4.6,2.3-10.7,1.9-14.5-3.3c-1.5-2-3.5-2.9-5.5-3c-4.5-0.2-9.1,3.7-7.9,9
		c2.6,12.3-13.6,18.6-20.5,9.7c-0.5-0.7-1-1.5-1.4-2.5c-1.3-2.9-3.9-4.3-6.6-4.3c-3.9-0.1-7.8,2.7-7.8,7.4c0,2.7-0.9,5.2-2.4,7.2
		c-5.4,6.6-18.4,5.5-20.6-4.7c-0.8-3.9-4.1-5.8-7.4-5.8c-3.3,0-6.5,1.9-7.4,5.8c-2.2,10.2-15.1,11.4-20.6,4.7
		c-1.5-1.9-2.4-4.4-2.4-7.2c0-4.7-4-7.5-7.8-7.4c-2.6,0-5.3,1.4-6.6,4.3c-0.4,1-0.9,1.8-1.4,2.5c-6.9,8.9-23.1,2.6-20.5-9.7
		c1.1-5.3-3.4-9.2-7.9-9c-2.1,0.1-4.1,1-5.5,3c-3.8,5.2-9.8,5.7-14.5,3.3c-5-2.6-8.3-8.5-5.5-14.9c2.5-5.6-2.6-11-7.7-10.5
		c-1.4,0.1-2.9,0.7-4.2,1.9c-3.8,3.4-8.3,3.6-12.1,2c-6.1-2.8-9.9-10.7-5.1-17.4c3.5-4.8,0-10.7-4.8-11.8c-1.6-0.3-3.4-0.1-5.1,0.9
		c-1.1,0.6-2.1,1-3.2,1.3c0,0-0.1,0-0.1,0c-0.3,0.1-0.7,0.1-1,0.2c0,0,0,0,0,0c-9.1,1.1-16.7-9.9-11.2-17.9c0.5-0.8,1.2-1.5,2-2.3
		c5.2-4.6,1.4-12.8-4.7-13.1c-0.9,0-1.8,0.1-2.7,0.4c-0.8,0.3-1.7,0.4-2.5,0.5c-5.7,0.6-10.8-3-12.4-8.8c-0.7-2.5-1.5-8.8,5.5-12.8
		c2.4-1.4,3.5-3.6,3.6-5.9c0.1-1.1,0-2.1-0.4-3.1c-0.4-1.1-1-1.9-1.7-2.6c-1.4-1.6-3.5-2.6-6.1-2.3c-6.3,0.7-11.7-3.5-12.7-9.8
		c-0.7-4.7,0.9-10.5,7.9-12.8c7.5-2.4,6.3-13.8-1.5-14.6c-7.7-0.8-10.4-6.7-10.4-11.5s2.7-10.8,10.4-11.6c7.8-0.8,9-12.2,1.5-14.6
		c-0.8-0.2-1.5-0.6-2.1-0.9c-3.6-2-5.5-5.8-5.7-9.7c-0.1-6.4,4.7-12.9,12.6-12c2.2,0.2,4.1-0.5,5.5-1.7c0.5-0.4,0.9-0.8,1.3-1.3
		c1.2-1.7,1.6-3.8,1.3-5.8c-0.3-2-1.4-3.9-3.5-5.2c-1.9-1.1-3.6-2.7-4.7-4.6c-1.3-2.4-1.5-5.3-0.9-8c1.5-5.4,6.7-9.8,12.6-9.1
		c2.5,0.4,4.9,1.4,7.5,0.3c0.4-0.2,0.8-0.4,1.2-0.7c0.9-0.5,1.7-1.2,2.3-2.3c0.7-1.2,1.1-2.6,1.1-3.9c0,0,0,0,0-0.1
		c0-0.1,0-0.1,0-0.2c0-0.1,0-0.2,0-0.4c0,0,0-0.1,0-0.1c-0.2-1.8-1-3.6-2.4-4.9c-9.5-8.5,0.4-23.3,11.3-19.7c0.1,0,0.3,0.1,0.4,0.1
		c0.1,0.1,0.3,0.1,0.4,0.2c0.5,0.2,0.9,0.4,1.4,0.7c1.3,0.7,2.6,1.1,3.9,1c5.4-0.1,9.8-6.7,6-11.9c-7-9.6,3.5-20.9,13-17.9
		c1.4,0.5,2.8,1.3,4.2,2.5c1.5,1.3,3.2,1.9,4.8,1.9c4.9,0,9.5-5.1,7.1-10.5c-2.9-6.6,0.6-12.6,5.8-15.1c4.6-2.2,10.4-1.6,14.2,3.5
		c1.3,1.8,3.1,2.7,4.9,2.9c4.7,0.6,9.7-3.4,8.6-8.9c-0.6-2.8-0.2-5.4,0.9-7.6c4-7.5,16.7-9.2,21,0.5c0.8,1.7,2,2.9,3.4,3.6
		c1.5,0.8,3.3,1.1,5.1,0.7c3.5-0.7,5.9-3.8,5.9-7.3c0-1,0.1-2,0.3-2.9c1-4,3.9-7.1,7.9-8.2c1.2-0.3,2.4-0.5,3.6-0.5
		c2.2,0,9.3,0.7,11.1,9.2c0.8,3.9,4.1,5.8,7.4,5.8c3.3,0,6.5-1.9,7.4-5.8c1.8-8.5,8.9-9.2,11.1-9.2c1.2,0,2.5,0.2,3.6,0.5
		c3.9,1.1,6.9,4.2,7.9,8.2c0.2,0.9,0.3,1.9,0.3,2.9c0,3.5,2.5,6.6,5.9,7.3c1.8,0.4,3.6,0.1,5.1-0.7c1.4-0.7,2.6-1.9,3.4-3.6
		c4.3-9.7,17-8,21-0.5c1.1,2.2,1.5,4.9,0.9,7.6c-1.2,5.6,3.9,9.5,8.6,8.9c1.8-0.2,3.6-1.1,4.9-2.9c3.7-5.1,9.6-5.7,14.2-3.5
		c5.2,2.5,8.7,8.5,5.8,15.1c-2.4,5.4,2.2,10.5,7.1,10.5c1.7,0,3.3-0.6,4.8-1.9c1.3-1.2,2.7-2,4.2-2.5c9.4-3,19.9,8.3,13,17.9
		c-3.8,5.2,0.6,11.8,6,11.9c1.3,0,2.6-0.3,3.9-1c0.5-0.3,0.9-0.5,1.4-0.7c0.1-0.1,0.3-0.1,0.4-0.2c0.1-0.1,0.3-0.1,0.4-0.1
		c10.9-3.6,20.8,11.2,11.3,19.7c-1.4,1.3-2.2,3.1-2.4,4.9c0,0,0,0.1,0,0.1c0,0.1,0,0.2,0,0.4c0,0.1,0,0.1,0,0.2c0,0,0,0,0,0.1
		c0,1.4,0.4,2.7,1.1,3.9c0.6,1,1.4,1.7,2.3,2.3c0.4,0.2,0.8,0.5,1.2,0.7c2.6,1.1,5,0.1,7.5-0.3c5.8-0.7,11.1,3.7,12.6,9.1
		c0.6,2.7,0.4,5.5-0.9,8c-1.1,2-2.7,3.5-4.7,4.6c-2.1,1.2-3.3,3.1-3.5,5.2c-0.3,2,0.1,4.1,1.3,5.8c0.4,0.5,0.8,1,1.3,1.3
		c1.4,1.2,3.3,2,5.5,1.7c8-0.8,12.7,5.7,12.6,12c-0.2,3.9-2.1,7.6-5.7,9.7c-0.6,0.3-1.3,0.7-2.1,0.9c-7.5,2.4-6.3,13.8,1.5,14.6
		c7.7,0.8,10.4,6.7,10.4,11.6s-2.7,10.7-10.4,11.5c-7.8,0.8-9.1,12.2-1.5,14.6c7,2.3,8.7,8.1,7.9,12.8c-1,6.3-6.4,10.5-12.7,9.8
		c-2.6-0.3-4.7,0.7-6.1,2.3c-0.7,0.7-1.3,1.5-1.7,2.6c-0.4,1-0.5,2.1-0.4,3.1c0.1,2.3,1.2,4.5,3.6,5.9c7,4,6.2,10.3,5.5,12.8
		c-1.6,5.8-6.7,9.4-12.4,8.8C417.5,340.2,416.7,340.1,415.9,339.8z M29.4,146.4c0.3-0.1,0.6-0.3,0.9-0.4c12.5-5.3,26.6-6.1,39.7-2.9
		c0.2,0.1,0.5,0.1,0.7,0.2c0.6,0.1,1.1,0.3,1.7,0.5c0.6,0.2,1.2,0.3,1.8,0.5c0.2,0.1,0.4,0.1,0.6,0.2c0.8,0.3,1.7,0.6,2.5,0.9
		c2.5,1,5,2.1,7.3,3.5c0,0.1,0,0.3,0,0.4c-0.1,0.8-0.1,1.6,0,2.4c0.1,1.9,0.3,3.8,0.8,5.6c-0.2,0.1-0.4,0.1-0.7,0.2
		c-0.2,0.1-0.4,0.1-0.7,0.2c-1.3-0.7-2.5-1.2-3.2-1.5c-2.1-0.9-4.3-1.7-6.4-2.3c-0.1,0-0.2,0-0.2-0.1c-0.7-0.2-1.4-0.4-2.1-0.6
		c-0.3-0.1-0.5-0.1-0.8-0.2c-0.5-0.1-1.1-0.3-1.6-0.4c-0.6-0.1-1.2-0.2-1.7-0.4c-0.3-0.1-0.5-0.1-0.8-0.2c-0.9-0.2-1.8-0.3-2.7-0.5
		c0,0,0,0,0,0c-0.9-0.1-1.8-0.2-2.7-0.3c-0.2,0-0.3,0-0.5,0c-0.5-0.1-1-0.1-1.6-0.1c-0.2,0-0.4,0-0.6,0c-0.4,0-0.8,0-1.1-0.1
		c-0.6,0-1.2-0.1-1.8-0.1c-0.4,0-0.8,0-1.1,0c-0.6,0-1.2,0-1.8,0c-0.4,0-0.7,0-1.1,0c-0.6,0-1.2,0-1.8,0.1c-0.3,0-0.6,0.1-0.9,0.1
		c-0.7,0.1-1.3,0.1-2,0.2c-0.2,0-0.3,0-0.5,0.1c-3.7,0.5-7.3,1.2-10.7,2.3c-6.2,2-9.3,9.2-6.3,15c0.1,0.2,0.2,0.3,0.3,0.5
		c4.3,9.7,13.3,17.6,22.9,22.9c2.5,1.4,5.1,2.6,7.9,3.7c1.2,0.5,2.4,0.9,3.7,1.3c0.1,0,0.2,0.1,0.2,0.1c0,0-0.1,0.1-0.1,0.1
		c-2.7,2.1-4.9,4.6-6.6,7.7c-0.2,0.3-0.3,0.5-0.5,0.8c-0.4,0.4-0.8,0.2-1.6-0.1c-2.3-0.8-4.6-1.8-6.8-2.8
		c-16.9-8.2-30.4-24.2-34-42.9c-0.5-2.7,0.6-4.9,2.4-6.8C21.2,150.6,25.2,148.2,29.4,146.4z M58.5,166.2c4,0.3,8,1.1,11.9,2.3
		c0,0,0,0,0,0c-0.3,0.1-1.1,1.7-2,3.7c-0.2,0.4-0.3,0.8-0.5,1.2c-1.4,3.6-2.8,7.8-2,8.4c0,0,0,0,0,0c-8.2-3.3-15.1-8.6-19.8-15
		c2-0.4,4.1-0.6,6.1-0.7C54.3,166,56.4,166,58.5,166.2z M494.4,153.3c1.8,1.9,2.9,4.2,2.4,6.8c-3.6,18.7-17,34.7-34,42.9
		c-2.1,1-4.5,2-6.8,2.8c-0.7,0.3-1.2,0.5-1.6,0.1c-0.1-0.3-0.3-0.6-0.5-0.8c-1.7-3-4-5.6-6.6-7.7c0,0-0.1-0.1-0.1-0.1
		c0.1,0,0.2-0.1,0.2-0.1c1.2-0.4,2.5-0.8,3.7-1.3c2.7-1.1,5.4-2.3,7.9-3.7c9.6-5.3,18.6-13.2,22.9-22.9c0.1-0.2,0.2-0.3,0.3-0.5
		c2.9-5.8-0.2-13-6.3-15c-3.5-1.1-7.1-1.9-10.7-2.3c-0.2,0-0.3,0-0.5-0.1c-0.7-0.1-1.3-0.1-2-0.2c-0.3,0-0.6-0.1-0.9-0.1
		c-0.6,0-1.2-0.1-1.8-0.1c-0.4,0-0.7,0-1.1,0c-0.6,0-1.2,0-1.8,0c-0.4,0-0.8,0-1.1,0c-0.6,0-1.2,0-1.8,0.1c-0.4,0-0.8,0-1.1,0.1
		c-0.2,0-0.4,0-0.6,0c-0.5,0-1,0.1-1.6,0.1c-0.2,0-0.3,0-0.5,0c-0.9,0.1-1.8,0.2-2.7,0.3c0,0,0,0,0,0c-0.9,0.1-1.8,0.3-2.7,0.5
		c-0.3,0-0.5,0.1-0.8,0.2c-0.6,0.1-1.2,0.2-1.7,0.4c-0.5,0.1-1.1,0.3-1.6,0.4c-0.3,0.1-0.5,0.1-0.8,0.2c-0.7,0.2-1.4,0.4-2.1,0.6
		c-0.1,0-0.2,0-0.2,0.1c-2.2,0.7-4.3,1.4-6.4,2.3c-0.7,0.3-1.9,0.8-3.2,1.5c-0.2-0.1-0.4-0.1-0.7-0.2c-0.2-0.1-0.4-0.2-0.7-0.2
		c0.5-1.8,0.7-3.7,0.8-5.6c0-0.8,0-1.6,0-2.4c0-0.1,0-0.3,0-0.4c2.3-1.4,4.7-2.5,7.3-3.5c0.8-0.3,1.7-0.6,2.5-0.9
		c0.2-0.1,0.4-0.1,0.6-0.2c0.6-0.2,1.2-0.4,1.8-0.5c0.6-0.2,1.1-0.3,1.7-0.5c0.2-0.1,0.5-0.1,0.7-0.2c13.1-3.3,27.2-2.4,39.7,2.9
		c0.3,0.1,0.6,0.3,0.9,0.4C486.8,148.2,490.8,150.6,494.4,153.3z M465.9,166.8c-4.6,6.4-11.6,11.7-19.8,15c0,0,0,0,0,0
		c0.8-0.6-0.5-4.8-2-8.4c-0.2-0.4-0.3-0.8-0.5-1.2c-0.9-2-1.7-3.6-2-3.7c0,0,0,0,0,0c3.9-1.2,7.9-2,11.9-2.3
		c2.1-0.2,4.2-0.2,6.2-0.1C461.8,166.2,463.9,166.5,465.9,166.8z"/>
	<path d="M310,167.6c-5,1.4-9.9,3-14.7,4.6c-10.5,3.4-21.3,7-31.9,8.2c0,0-0.1,0-0.1,0c-0.8,0.1-1.5,0.2-2.3,0.2c-0.2,0-0.3,0-0.5,0
		c-0.7,0-1.3,0.1-2,0.1c-0.6,0-1.2,0-1.8,0c-0.2,0-0.5,0-0.7,0c-0.2,0-0.5,0-0.7,0c-0.6,0-1.2,0-1.8,0c-0.7,0-1.3-0.1-2-0.1
		c-0.2,0-0.3,0-0.5,0c-0.8-0.1-1.5-0.1-2.3-0.2c0,0-0.1,0-0.1,0c-10.6-1.2-21.4-4.8-31.9-8.2c-4.8-1.6-9.8-3.2-14.7-4.6
		c-23.9-6.7-48.2-7.7-65.9,26.4c-8.4,16.3-8.7,31.1-0.7,44c6.6,10.7,17.7,18.5,28.3,26.1c12.4,8.7,24.1,17,24.3,27.3
		c0.1,5-0.2,11.2-0.6,17.8c-1.4,25.9-3.3,61.4,17.2,83.1c11.6,12.2,28.9,18.4,51.4,18.4c0,0,0,0,0,0s0,0,0,0
		c22.5,0,39.8-6.2,51.4-18.4c20.5-21.7,18.6-57.2,17.2-83.1c-0.4-6.6-0.7-12.8-0.6-17.8c0.2-10.3,11.9-18.5,24.3-27.3
		c10.7-7.5,21.7-15.3,28.3-26.1c8-12.9,7.7-27.7-0.7-44C358.3,159.9,333.9,160.9,310,167.6z M226.3,190.9c0.1,0,0.1,0.1,0.2,0.1
		c2,0.6,4.4,1.2,7,1.8c0,0,0.1,0,0.1,0c0.8,0.2,1.6,0.4,2.5,0.6c0.3,0.1,0.6,0.1,0.8,0.2c0.4,0.1,0.9,0.2,1.3,0.3
		c0.5,0.1,0.9,0.2,1.4,0.3c0.1,0,0.1,0,0.2,0c1.2,0.2,2.3,0.4,3.5,0.6c0.1,0,0.2,0,0.2,0c0.6,0.1,1.2,0.2,1.8,0.3c0.1,0,0.2,0,0.3,0
		c1,0.1,2,0.2,2.9,0.3c0.4,0,0.7,0.1,1.1,0.1c0.4,0,0.8,0.1,1.1,0.1c0.5,0,1.1,0.1,1.6,0.1c0.3,0,0.6,0,0.9,0c0.8,0,1.7,0,2.5,0
		c0,0,0,0,0,0c0,0,0,0,0,0c0.8,0,1.7,0,2.5,0c0.3,0,0.6,0,0.8,0c0.5,0,1.1-0.1,1.6-0.1c0.4,0,0.8,0,1.1-0.1c0.4,0,0.7-0.1,1.1-0.1
		c1-0.1,2-0.2,2.9-0.3c0.1,0,0.2,0,0.4,0c0.6-0.1,1.2-0.2,1.8-0.3c0.1,0,0.2,0,0.3,0c1.2-0.2,2.3-0.4,3.5-0.6c0.1,0,0.2,0,0.2,0
		c0.5-0.1,0.9-0.2,1.4-0.3c0.4-0.1,0.9-0.2,1.3-0.3c0.3-0.1,0.6-0.1,0.8-0.2c0.9-0.2,1.7-0.4,2.5-0.6c0,0,0.1,0,0.1,0
		c2.6-0.6,4.9-1.3,7-1.8c0.1,0,0.1-0.1,0.2-0.1c4.8-1.4,9.6-2.9,14.3-4.5c4.3-1.4,8.5-2.8,12.6-4c0.1,0,0.2,0,0.2-0.1
		c13.9-4,24.8-5.2,34,0.1c5,2.9,10.5,8.3,15.7,18.4c12.5,24.2-0.5,35.1-22.9,50.9c-14.9,10.5-30.3,21.4-30.6,39.2
		c-0.1,5.5,0.2,12,0.6,18.9c1.3,24.5,3,55-13.1,72c-8.8,9.2-22,13.7-40.5,13.7c-18.5,0-31.7-4.5-40.5-13.7
		c-16.1-17-14.5-47.5-13.1-72c0.4-6.9,0.7-13.3,0.6-18.9c-0.3-17.9-15.7-28.7-30.6-39.2c-22.4-15.8-35.5-26.7-22.9-50.9
		c5.2-10.1,10.7-15.5,15.7-18.4c9.2-5.2,20.1-4.1,34-0.1c0.1,0,0.2,0,0.2,0.1c4.1,1.2,8.3,2.6,12.6,4
		C216.7,188,221.5,189.5,226.3,190.9z"/>
	<path d="M195.5,220.3c-0.9-0.1-1.9-0.1-2.8-0.1c-2.8,0.1-5.5,0.8-7.9,2c-1.9,0.9-3.3,2.7-3.5,4.9l0,0c-1.2,11.3,6.8,21.3,17.8,22.5
		c0.9,0.1,1.9,0.1,2.8,0.1c2.8-0.1,5.5-0.8,7.9-2c1.9-0.9,3.3-2.7,3.5-4.9l0,0C214.4,231.5,206.5,221.5,195.5,220.3z"/>
</g>
</svg>
